{"title":"Malevolence 2004 + Bereavement 2010 BigPerm LKRG","uid":6683341,"size":1812188850,"categoryP":"video","categoryS":"movies","magnet":"?xt=urn:btih:533d172e70848e7326951dfcc7b365316b9ea7e6&amp;dn=Malevolence+2004+%2B+Bereavement+2010+BigPerm+LKRG&amp;tr=udp%3A%2F%2Ftracker.openbittorrent.com%3A80&amp;tr=udp%3A%2F%2Fopen.demonii.com%3A1337&amp;tr=udp%3A%2F%2Ftracker.coppersurfer.tk%3A6969&amp;tr=udp%3A%2F%2Fexodus.desync.com%3A6969","seeders":1,"leechers":0,"uploader":".BONE.","files":3,"time":1316291895,"description":"PLOT\n\nIt\\'s ten years after the kidnapping of Martin Bristol. Taken from a backyard swing at his home at\nthe age of six, he is forced to witness unspeakable crimes of a deranged madman. For years, Martin\\'s\nwhereabouts have remained a mystery...until now.\n &lt;a href=&quot;\nhttp://www.imdb.com/title/tt0388230/&quot; rel=&quot;nofollow&quot; target=&quot;_NEW&quot;&gt;\nhttp://www.imdb.com/title/tt0388230/&lt;/a&gt;\n\n\nMalevolence 2004\n\nEncoded By .......: BigPerm1828\nRuntime ..........: 1h 25mn\nFile Size ........: 794 MiB\nResolution .......: 704x396\nIMDb URL .........: http://www.imdb.com/title/tt0388230/\nGenre ............: Serial Killer,Bank,Kidnapping,Escape,Hostage\nLanguage .........: English\nVideo\nID : 0\nFormat : MPEG-4 Visual\nFormat profile : Advanced Simple@L5\nFormat settings, BVOP : Yes\nFormat settings, QPel : No\nFormat settings, GMC : No warppoints\nFormat settings, Matrix : Default (H.263)\nCodec ID : XVID\nCodec ID/Hint : XviD\nDuration : 1h 25mn\nBit rate : 840 Kbps\nWidth : 704 pixels\nHeight : 396 pixels\nDisplay aspect ratio : 16:9\nFrame rate : 23.976 fps\nColor space : YUV\nChroma subsampling : 4:2:0\nBit depth : 8 bits\nScan type : Progressive\nCompression mode : Lossy\nBits/(Pixel*Frame) : 0.126\nStream size : 516 MiB (65%)\nWriting library : XviD 1.2.1 (UTC 2008-12-04)\n\nAudio\nID : 1\nFormat : AC-3\nFormat/Info : Audio Coding 3\nMode extension : CM (complete main)\nCodec ID : 2000\nDuration : 1h 25mn\nBit rate mode : Constant\nBit rate : 448 Kbps\nChannel(s) : 6 channels\nChannel positions : Front: L C R, Side: L R, LFE\nSampling rate : 48.0 KHz\nBit depth : 16 bits\nCompression mode : Lossy\nVideo delay : 42ms\nStream size : 275 MiB (35%)\nAlignment : Split accross interleaves\nInterleave, duration : 500 ms (11.99 video frames)\nInterleave, preload duration : 500 ms\n","torrent":{"xt":"urn:btih:533d172e70848e7326951dfcc7b365316b9ea7e6","amp;dn":"Malevolence+2004+%2B+Bereavement+2010+BigPerm+LKRG","amp;tr":["udp%3A%2F%2Ftracker.openbittorrent.com%3A80","udp%3A%2F%2Fopen.demonii.com%3A1337","udp%3A%2F%2Ftracker.coppersurfer.tk%3A6969","udp%3A%2F%2Fexodus.desync.com%3A6969"],"infoHash":"533d172e70848e7326951dfcc7b365316b9ea7e6","infoHashBuffer":{"type":"Buffer","data":[83,61,23,46,112,132,142,115,38,149,29,252,199,179,101,49,107,158,167,230]},"announce":[],"urlList":[]}}